<svg xmlns="http://www.w3.org/2000/svg" width="985" height="534"><g><path d="M117.088 86.344l55.808 14.08-90.624 140.544 40.96 19.456 34.56-28.928-38.4-10.496 21.504-36.352h46.848l-.768 56.32 30.72 18.688 41.728-26.112-27.648-13.824 2.048-134.144-76.544-23.808zm73.216 19.968l-1.536 58.624H152.16zm144.64 53.504l-1.536 81.664 20.992 15.872 41.216-22.528-23.04-12.544 1.536-87.296-30.464-19.456-36.096 19.968-23.296-19.968-39.936 21.504 23.552 17.92-.512 86.528 20.736 15.872 37.12-20.48-18.688-14.592.512-74.24zm157.184-26.624l-37.12-19.712-58.88 34.048-.256 91.648 38.656 19.968 46.336-21.76-45.056-20.992V140.36l29.696 15.104zm9.728 17.152l-2.048 90.624 21.248 16.384 41.472-22.528-23.552-13.056 2.048-87.552-23.04-18.688-39.936 21.504zm52.736-86.528l-12.288-9.472-36.608 39.68 11.008 8.96zm9.472 82.688l-2.816 88.32 46.336 24.832 51.712-22.784-58.112-24.832.512-25.856 57.6-15.36.512-26.88-35.84-29.184zm38.144-6.912l24.064 18.944-24.32 10.752zm146.432 20.224l-1.536 81.664 20.992 15.872 41.216-22.528-23.04-12.544 1.536-87.296-30.464-19.456-36.096 19.968-23.296-19.968-39.936 21.504 23.552 17.92-.512 86.528 20.736 15.872 37.12-20.48-18.688-14.592.512-74.24zm69.888-8.192l-1.792 88.576 31.488 18.944 39.168-25.856-31.488-14.08 1.024-69.12h23.808l15.872-24.832-40.704.512.512-40.96-36.864 14.08-1.024 26.624-25.856 26.112zM117.13 392.112l-.472 35.164-40.592-13.452-32.332 27.612 51.212 15.104 61.832-39.412.236-54.516-63.248-26.668.472-28.792 40.592 12.508 26.196-30.68L113.118 276l-59.236 45.312-.472 43.896zm64.192-33.748l-1.888 83.544 19.588 15.104 38.232-20.768-21.712-12.036 1.888-80.712-21.24-17.228-36.816 19.824zm48.616-79.768l-11.328-8.732-33.748 36.58 10.148 8.26zm14.396 80.948l-1.652 81.656 29.028 17.464 36.108-23.836-29.028-12.98.944-63.72h21.948l14.632-22.892-37.524.472.472-37.76-33.984 12.98-.944 24.544-23.836 24.072zm119.652 59.472l1.888-76.936-19.824-15.812-39.176 18.644 22.892 11.8-1.888 81.656 29.736 18.408 31.86-16.284 24.308 16.284 32.568-20.532-20.296-13.924.708-80.24-19.352-15.812-34.456 18.644 17.7 11.8-.708 72.216zm101.716-17.7l-20.06 7.316v29.5l27.848 18.88 29.028-20.06 17.464 21.004 40.592-18.408-24.072-20.296 2.36-77.172-37.288-17.936-55.46 27.14zm8.732-50.504l29.028 8.496-.708 29.972-27.376 9.204zm27.848 76.7l-25.252-13.216 25.724-9.204zm67.968-67.968l-1.652 81.656 29.028 17.464 36.108-23.836-29.028-12.98.944-63.72h21.948l14.632-22.892-37.524.472.472-37.76-33.984 12.98-.944 24.544-23.836 24.072zm84.96-1.18l-1.888 83.544 19.588 15.104 38.232-20.768-21.712-12.036 1.888-80.712-21.24-17.228-36.816 19.824zm48.616-79.768l-11.328-8.732-33.748 36.58 10.148 8.26zM806.25 427.04l.472-84.96-38.704-17.7-57.82 34.928-.708 80.476 39.648 19.352zm-62.304-3.068l.708-72.924 26.904 7.08-.708 75.284zm148.916-56.876l-1.416 75.284 19.352 14.632 37.996-20.768-21.24-11.564 1.416-80.476-28.084-17.936-33.276 18.408-21.476-18.408-36.816 19.824 21.712 16.52-.472 79.768 19.116 14.632 34.22-18.88-17.228-13.452.472-68.44z"/></g></svg>